<svg width="569" height="220" viewBox="0 0 569 220" fill="none" xmlns="http://www.w3.org/2000/svg">
<rect width="569" height="220" fill="white"/>
<rect width="220" height="220" fill="#FF6107"/>
<path d="M87.0341 63.4091L109.534 134.136H110.398L132.943 63.4091H154.761L122.67 156.5H97.3068L65.1705 63.4091H87.0341Z" fill="black"/>
<path d="M255.688 144V50.9091H292.961C299.81 50.9091 305.522 51.9242 310.098 53.9545C314.673 55.9848 318.113 58.803 320.416 62.4091C322.719 65.9848 323.87 70.1061 323.87 74.7727C323.87 78.4091 323.143 81.6061 321.688 84.3636C320.234 87.0909 318.234 89.3333 315.688 91.0909C313.173 92.8182 310.294 94.0455 307.052 94.7727V95.6818C310.598 95.8333 313.916 96.8333 317.007 98.6818C320.128 100.53 322.658 103.121 324.598 106.455C326.537 109.758 327.507 113.697 327.507 118.273C327.507 123.212 326.279 127.621 323.825 131.5C321.401 135.348 317.81 138.394 313.052 140.636C308.294 142.879 302.431 144 295.461 144H255.688ZM275.37 127.909H291.416C296.901 127.909 300.901 126.864 303.416 124.773C305.931 122.652 307.188 119.833 307.188 116.318C307.188 113.742 306.567 111.47 305.325 109.5C304.082 107.53 302.31 105.985 300.007 104.864C297.734 103.742 295.022 103.182 291.87 103.182H275.37V127.909ZM275.37 89.8636H289.961C292.658 89.8636 295.052 89.3939 297.143 88.4545C299.264 87.4848 300.931 86.1212 302.143 84.3636C303.385 82.6061 304.007 80.5 304.007 78.0455C304.007 74.6818 302.81 71.9697 300.416 69.9091C298.052 67.8485 294.688 66.8182 290.325 66.8182H275.37V89.8636ZM429.699 97.4545C429.699 107.606 427.775 116.242 423.926 123.364C420.108 130.485 414.896 135.924 408.29 139.682C401.714 143.409 394.32 145.273 386.108 145.273C377.835 145.273 370.411 143.394 363.835 139.636C357.259 135.879 352.063 130.439 348.244 123.318C344.426 116.197 342.517 107.576 342.517 97.4545C342.517 87.303 344.426 78.6667 348.244 71.5455C352.063 64.4242 357.259 59 363.835 55.2727C370.411 51.5151 377.835 49.6364 386.108 49.6364C394.32 49.6364 401.714 51.5151 408.29 55.2727C414.896 59 420.108 64.4242 423.926 71.5455C427.775 78.6667 429.699 87.303 429.699 97.4545ZM409.744 97.4545C409.744 90.8788 408.759 85.3333 406.79 80.8182C404.85 76.303 402.108 72.8788 398.562 70.5455C395.017 68.2121 390.866 67.0455 386.108 67.0455C381.35 67.0455 377.199 68.2121 373.653 70.5455C370.108 72.8788 367.35 76.303 365.381 80.8182C363.441 85.3333 362.472 90.8788 362.472 97.4545C362.472 104.03 363.441 109.576 365.381 114.091C367.35 118.606 370.108 122.03 373.653 124.364C377.199 126.697 381.35 127.864 386.108 127.864C390.866 127.864 395.017 126.697 398.562 124.364C402.108 122.03 404.85 118.606 406.79 114.091C408.759 109.576 409.744 104.03 409.744 97.4545ZM509.846 81C509.209 78.7879 508.315 76.8333 507.164 75.1364C506.012 73.4091 504.603 71.9545 502.937 70.7727C501.3 69.5606 499.421 68.6364 497.3 68C495.209 67.3636 492.891 67.0455 490.346 67.0455C485.588 67.0455 481.406 68.2273 477.8 70.5909C474.224 72.9545 471.437 76.3939 469.437 80.9091C467.437 85.3939 466.437 90.8788 466.437 97.3636C466.437 103.848 467.421 109.364 469.391 113.909C471.361 118.455 474.149 121.924 477.755 124.318C481.361 126.682 485.618 127.864 490.527 127.864C494.982 127.864 498.785 127.076 501.937 125.5C505.118 123.894 507.543 121.636 509.209 118.727C510.906 115.818 511.755 112.379 511.755 108.409L515.755 109H491.755V94.1818H530.709V105.909C530.709 114.091 528.982 121.121 525.527 127C522.073 132.848 517.315 137.364 511.255 140.545C505.194 143.697 498.255 145.273 490.437 145.273C481.709 145.273 474.043 143.348 467.437 139.5C460.831 135.621 455.679 130.121 451.982 123C448.315 115.848 446.482 107.364 446.482 97.5455C446.482 90 447.573 83.2727 449.755 77.3636C451.967 71.4242 455.058 66.3939 459.027 62.2727C462.997 58.1515 467.618 55.0151 472.891 52.8636C478.164 50.7121 483.876 49.6364 490.027 49.6364C495.3 49.6364 500.209 50.4091 504.755 51.9545C509.3 53.4697 513.331 55.6212 516.846 58.4091C520.391 61.197 523.285 64.5151 525.527 68.3636C527.77 72.1818 529.209 76.3939 529.846 81H509.846Z" fill="black"/>
<path d="M242.207 171.455L246.752 184.274H246.88L251.426 171.455H252.818L247.527 186H246.106L240.815 171.455H242.207ZM255.929 190.091C255.678 190.091 255.443 190.067 255.225 190.02C255.008 189.973 254.835 189.92 254.707 189.864L255.048 188.749C255.479 188.881 255.862 188.929 256.199 188.891C256.535 188.857 256.833 188.706 257.093 188.436C257.354 188.171 257.586 187.764 257.789 187.214L258.187 186.107L254.174 175.091H255.545L258.784 184.331H258.883L262.122 175.091H263.493L258.876 187.726C258.682 188.251 258.443 188.689 258.159 189.04C257.875 189.395 257.546 189.658 257.172 189.828C256.802 190.003 256.388 190.091 255.929 190.091ZM268.681 186.249C268.023 186.249 267.421 186.121 266.877 185.865C266.332 185.605 265.899 185.231 265.577 184.743C265.255 184.25 265.094 183.654 265.094 182.953C265.094 182.413 265.196 181.959 265.4 181.589C265.603 181.22 265.892 180.917 266.266 180.68C266.64 180.444 267.083 180.257 267.594 180.119C268.105 179.982 268.669 179.875 269.284 179.8C269.895 179.724 270.411 179.658 270.833 179.601C271.259 179.544 271.583 179.454 271.806 179.331C272.028 179.208 272.14 179.009 272.14 178.734V178.479C272.14 177.735 271.917 177.151 271.472 176.724C271.032 176.294 270.397 176.078 269.569 176.078C268.783 176.078 268.141 176.251 267.644 176.597C267.151 176.942 266.806 177.349 266.607 177.818L265.407 177.385C265.653 176.788 265.994 176.312 266.429 175.957C266.865 175.598 267.353 175.339 267.892 175.183C268.432 175.022 268.979 174.942 269.533 174.942C269.95 174.942 270.383 174.996 270.833 175.105C271.287 175.214 271.709 175.403 272.097 175.673C272.485 175.938 272.8 176.31 273.042 176.788C273.283 177.262 273.404 177.863 273.404 178.592V186H272.14V184.274H272.061C271.91 184.596 271.685 184.909 271.387 185.212C271.088 185.515 270.714 185.763 270.265 185.957C269.815 186.152 269.287 186.249 268.681 186.249ZM268.851 185.091C269.524 185.091 270.106 184.942 270.598 184.643C271.091 184.345 271.47 183.95 271.735 183.457C272.005 182.96 272.14 182.413 272.14 181.817V180.24C272.045 180.33 271.886 180.411 271.664 180.482C271.446 180.553 271.193 180.616 270.904 180.673C270.62 180.725 270.336 180.77 270.051 180.808C269.767 180.846 269.512 180.879 269.284 180.908C268.669 180.983 268.143 181.102 267.708 181.263C267.272 181.424 266.938 181.646 266.706 181.93C266.474 182.21 266.358 182.57 266.358 183.01C266.358 183.673 266.595 184.187 267.069 184.551C267.542 184.911 268.136 185.091 268.851 185.091ZM284.096 177.484L282.939 177.811C282.825 177.484 282.664 177.188 282.456 176.923C282.247 176.658 281.975 176.447 281.639 176.291C281.307 176.135 280.895 176.057 280.403 176.057C279.664 176.057 279.058 176.232 278.585 176.582C278.111 176.933 277.875 177.385 277.875 177.939C277.875 178.408 278.036 178.789 278.358 179.082C278.684 179.371 279.186 179.601 279.863 179.771L281.511 180.176C282.425 180.399 283.109 180.751 283.564 181.234C284.023 181.717 284.252 182.323 284.252 183.053C284.252 183.668 284.082 184.215 283.741 184.693C283.4 185.171 282.924 185.548 282.314 185.822C281.708 186.092 281.004 186.227 280.204 186.227C279.139 186.227 278.261 185.988 277.569 185.51C276.878 185.027 276.435 184.331 276.241 183.422L277.456 183.124C277.612 183.772 277.917 184.262 278.372 184.594C278.831 184.925 279.435 185.091 280.183 185.091C281.021 185.091 281.691 184.904 282.193 184.53C282.695 184.151 282.946 183.678 282.946 183.109C282.946 182.669 282.799 182.3 282.505 182.001C282.212 181.698 281.767 181.476 281.17 181.334L279.387 180.908C278.44 180.68 277.74 180.321 277.285 179.828C276.831 179.336 276.603 178.725 276.603 177.996C276.603 177.394 276.767 176.866 277.093 176.412C277.42 175.953 277.87 175.593 278.443 175.332C279.016 175.072 279.669 174.942 280.403 174.942C281.402 174.942 282.2 175.169 282.797 175.624C283.398 176.073 283.831 176.694 284.096 177.484ZM292.908 186V171.455H297.816C298.763 171.455 299.551 171.62 300.181 171.952C300.816 172.283 301.291 172.735 301.609 173.308C301.926 173.881 302.085 174.532 302.085 175.261C302.085 175.867 301.983 176.386 301.779 176.817C301.576 177.248 301.299 177.596 300.948 177.861C300.598 178.126 300.207 178.318 299.776 178.436V178.55C300.245 178.583 300.7 178.749 301.14 179.047C301.58 179.34 301.942 179.752 302.227 180.283C302.511 180.813 302.653 181.447 302.653 182.186C302.653 182.92 302.489 183.576 302.163 184.153C301.836 184.726 301.334 185.179 300.657 185.51C299.985 185.837 299.128 186 298.086 186H292.908ZM294.237 184.807H298.086C299.208 184.807 300.037 184.558 300.572 184.061C301.112 183.564 301.381 182.939 301.381 182.186C301.381 181.632 301.246 181.13 300.977 180.68C300.711 180.226 300.335 179.866 299.847 179.601C299.364 179.336 298.796 179.203 298.143 179.203H294.237V184.807ZM294.237 178.024H297.937C298.51 178.024 299.012 177.906 299.442 177.669C299.873 177.432 300.21 177.106 300.451 176.689C300.692 176.272 300.813 175.796 300.813 175.261C300.813 174.49 300.562 173.862 300.06 173.379C299.558 172.892 298.81 172.648 297.816 172.648H294.237V178.024ZM312.527 181.831V175.091H313.791V186H312.527V184.189H312.427C312.172 184.748 311.767 185.214 311.213 185.588C310.659 185.957 309.982 186.142 309.181 186.142C308.485 186.142 307.868 185.991 307.328 185.688C306.788 185.38 306.364 184.93 306.056 184.338C305.749 183.746 305.595 183.019 305.595 182.158V175.091H306.859V182.08C306.859 182.932 307.11 183.618 307.612 184.139C308.114 184.655 308.758 184.913 309.544 184.913C310.036 184.913 310.51 184.795 310.964 184.558C311.419 184.321 311.793 183.976 312.086 183.521C312.38 183.062 312.527 182.499 312.527 181.831ZM324.467 177.484L323.31 177.811C323.196 177.484 323.035 177.188 322.827 176.923C322.618 176.658 322.346 176.447 322.01 176.291C321.679 176.135 321.267 176.057 320.774 176.057C320.036 176.057 319.429 176.232 318.956 176.582C318.482 176.933 318.246 177.385 318.246 177.939C318.246 178.408 318.407 178.789 318.729 179.082C319.055 179.371 319.557 179.601 320.234 179.771L321.882 180.176C322.796 180.399 323.48 180.751 323.935 181.234C324.394 181.717 324.624 182.323 324.624 183.053C324.624 183.668 324.453 184.215 324.112 184.693C323.771 185.171 323.295 185.548 322.685 185.822C322.079 186.092 321.375 186.227 320.575 186.227C319.51 186.227 318.632 185.988 317.94 185.51C317.249 185.027 316.806 184.331 316.612 183.422L317.827 183.124C317.983 183.772 318.288 184.262 318.743 184.594C319.202 184.925 319.806 185.091 320.554 185.091C321.392 185.091 322.062 184.904 322.564 184.53C323.066 184.151 323.317 183.678 323.317 183.109C323.317 182.669 323.17 182.3 322.876 182.001C322.583 181.698 322.138 181.476 321.541 181.334L319.759 180.908C318.812 180.68 318.111 180.321 317.656 179.828C317.202 179.336 316.974 178.725 316.974 177.996C316.974 177.394 317.138 176.866 317.464 176.412C317.791 175.953 318.241 175.593 318.814 175.332C319.387 175.072 320.04 174.942 320.774 174.942C321.773 174.942 322.571 175.169 323.168 175.624C323.769 176.073 324.202 176.694 324.467 177.484ZM327.406 186V175.091H328.677V186H327.406ZM328.052 173.216C327.792 173.216 327.569 173.128 327.385 172.953C327.2 172.773 327.108 172.558 327.108 172.307C327.108 172.056 327.2 171.843 327.385 171.668C327.569 171.488 327.792 171.398 328.052 171.398C328.313 171.398 328.535 171.488 328.72 171.668C328.904 171.843 328.997 172.056 328.997 172.307C328.997 172.558 328.904 172.773 328.72 172.953C328.535 173.128 328.313 173.216 328.052 173.216ZM333.285 179.182V186H332.021V175.091H333.249V176.803H333.363C333.619 176.244 334.016 175.796 334.556 175.46C335.101 175.119 335.773 174.949 336.573 174.949C337.307 174.949 337.951 175.103 338.505 175.411C339.064 175.714 339.497 176.161 339.805 176.753C340.117 177.345 340.273 178.071 340.273 178.933V186H339.009V179.011C339.009 178.116 338.758 177.409 338.256 176.888C337.759 176.367 337.092 176.107 336.254 176.107C335.681 176.107 335.172 176.23 334.727 176.476C334.281 176.722 333.929 177.077 333.668 177.541C333.413 178 333.285 178.547 333.285 179.182ZM348.013 186.227C346.995 186.227 346.114 185.991 345.371 185.517C344.628 185.039 344.052 184.378 343.645 183.536C343.243 182.688 343.042 181.713 343.042 180.609C343.042 179.511 343.243 178.536 343.645 177.683C344.052 176.826 344.614 176.156 345.328 175.673C346.048 175.186 346.879 174.942 347.821 174.942C348.413 174.942 348.984 175.051 349.533 175.268C350.082 175.482 350.575 175.811 351.01 176.256C351.451 176.696 351.799 177.252 352.054 177.925C352.31 178.592 352.438 179.383 352.438 180.297V180.922H343.915V179.807H351.145C351.145 179.106 351.003 178.476 350.719 177.918C350.44 177.354 350.049 176.909 349.547 176.582C349.05 176.256 348.475 176.092 347.821 176.092C347.13 176.092 346.522 176.277 345.996 176.646C345.471 177.016 345.059 177.503 344.76 178.109C344.467 178.715 344.318 179.378 344.313 180.098V180.766C344.313 181.632 344.462 182.39 344.76 183.038C345.063 183.682 345.492 184.182 346.046 184.537C346.6 184.892 347.256 185.07 348.013 185.07C348.529 185.07 348.981 184.989 349.37 184.828C349.763 184.667 350.092 184.452 350.357 184.182C350.627 183.907 350.83 183.607 350.968 183.28L352.168 183.67C352.002 184.13 351.73 184.554 351.351 184.942C350.977 185.33 350.508 185.643 349.945 185.879C349.386 186.111 348.742 186.227 348.013 186.227ZM362.553 177.484L361.396 177.811C361.282 177.484 361.121 177.188 360.913 176.923C360.704 176.658 360.432 176.447 360.096 176.291C359.764 176.135 359.353 176.057 358.86 176.057C358.121 176.057 357.515 176.232 357.042 176.582C356.568 176.933 356.332 177.385 356.332 177.939C356.332 178.408 356.493 178.789 356.815 179.082C357.141 179.371 357.643 179.601 358.32 179.771L359.968 180.176C360.882 180.399 361.566 180.751 362.021 181.234C362.48 181.717 362.71 182.323 362.71 183.053C362.71 183.668 362.539 184.215 362.198 184.693C361.857 185.171 361.381 185.548 360.771 185.822C360.165 186.092 359.461 186.227 358.661 186.227C357.596 186.227 356.718 185.988 356.026 185.51C355.335 185.027 354.892 184.331 354.698 183.422L355.913 183.124C356.069 183.772 356.374 184.262 356.829 184.594C357.288 184.925 357.892 185.091 358.64 185.091C359.478 185.091 360.148 184.904 360.65 184.53C361.152 184.151 361.403 183.678 361.403 183.109C361.403 182.669 361.256 182.3 360.962 182.001C360.669 181.698 360.224 181.476 359.627 181.334L357.844 180.908C356.897 180.68 356.197 180.321 355.742 179.828C355.288 179.336 355.06 178.725 355.06 177.996C355.06 177.394 355.224 176.866 355.55 176.412C355.877 175.953 356.327 175.593 356.9 175.332C357.473 175.072 358.126 174.942 358.86 174.942C359.859 174.942 360.657 175.169 361.254 175.624C361.855 176.073 362.288 176.694 362.553 177.484ZM372.807 177.484L371.65 177.811C371.536 177.484 371.375 177.188 371.167 176.923C370.958 176.658 370.686 176.447 370.35 176.291C370.018 176.135 369.606 176.057 369.114 176.057C368.375 176.057 367.769 176.232 367.296 176.582C366.822 176.933 366.586 177.385 366.586 177.939C366.586 178.408 366.747 178.789 367.069 179.082C367.395 179.371 367.897 179.601 368.574 179.771L370.222 180.176C371.136 180.399 371.82 180.751 372.275 181.234C372.734 181.717 372.963 182.323 372.963 183.053C372.963 183.668 372.793 184.215 372.452 184.693C372.111 185.171 371.635 185.548 371.025 185.822C370.418 186.092 369.715 186.227 368.915 186.227C367.85 186.227 366.971 185.988 366.28 185.51C365.589 185.027 365.146 184.331 364.952 183.422L366.167 183.124C366.323 183.772 366.628 184.262 367.083 184.594C367.542 184.925 368.146 185.091 368.894 185.091C369.732 185.091 370.402 184.904 370.904 184.53C371.406 184.151 371.657 183.678 371.657 183.109C371.657 182.669 371.51 182.3 371.216 182.001C370.923 181.698 370.478 181.476 369.881 181.334L368.098 180.908C367.151 180.68 366.451 180.321 365.996 179.828C365.542 179.336 365.314 178.725 365.314 177.996C365.314 177.394 365.478 176.866 365.804 176.412C366.131 175.953 366.581 175.593 367.154 175.332C367.727 175.072 368.38 174.942 369.114 174.942C370.113 174.942 370.911 175.169 371.507 175.624C372.109 176.073 372.542 176.694 372.807 177.484ZM393.544 178.727C393.544 180.242 393.274 181.561 392.734 182.683C392.195 183.801 391.451 184.667 390.504 185.283C389.562 185.893 388.478 186.199 387.251 186.199C386.025 186.199 384.938 185.893 383.991 185.283C383.049 184.667 382.308 183.801 381.768 182.683C381.233 181.561 380.966 180.242 380.966 178.727C380.966 177.212 381.233 175.896 381.768 174.778C382.308 173.656 383.052 172.79 383.999 172.179C384.946 171.563 386.03 171.256 387.251 171.256C388.478 171.256 389.562 171.563 390.504 172.179C391.451 172.79 392.195 173.656 392.734 174.778C393.274 175.896 393.544 177.212 393.544 178.727ZM392.251 178.727C392.251 177.425 392.034 176.31 391.598 175.382C391.162 174.449 390.568 173.737 389.815 173.244C389.063 172.752 388.208 172.506 387.251 172.506C386.3 172.506 385.447 172.752 384.695 173.244C383.942 173.737 383.345 174.447 382.905 175.375C382.469 176.303 382.251 177.42 382.251 178.727C382.251 180.029 382.469 181.144 382.905 182.072C383.34 183 383.935 183.713 384.688 184.21C385.44 184.703 386.295 184.949 387.251 184.949C388.208 184.949 389.063 184.703 389.815 184.21C390.573 183.718 391.17 183.008 391.605 182.08C392.041 181.147 392.256 180.029 392.251 178.727ZM396.493 190.091V175.091H397.722V177.172H397.871C398.023 176.845 398.231 176.511 398.496 176.17C398.761 175.825 399.112 175.534 399.547 175.297C399.988 175.06 400.542 174.942 401.209 174.942C402.109 174.942 402.895 175.179 403.567 175.652C404.244 176.121 404.77 176.779 405.144 177.626C405.523 178.469 405.712 179.452 405.712 180.574C405.712 181.701 405.523 182.688 405.144 183.536C404.77 184.383 404.244 185.044 403.567 185.517C402.895 185.991 402.114 186.227 401.223 186.227C400.565 186.227 400.014 186.109 399.569 185.872C399.128 185.635 398.771 185.344 398.496 184.999C398.226 184.648 398.018 184.307 397.871 183.976H397.757V190.091H396.493ZM397.743 180.553C397.743 181.433 397.873 182.214 398.134 182.896C398.399 183.573 398.778 184.106 399.27 184.494C399.767 184.878 400.369 185.07 401.074 185.07C401.799 185.07 402.409 184.871 402.907 184.473C403.408 184.071 403.79 183.528 404.05 182.847C404.315 182.165 404.448 181.4 404.448 180.553C404.448 179.714 404.318 178.959 404.057 178.287C403.801 177.615 403.423 177.082 402.921 176.689C402.419 176.291 401.803 176.092 401.074 176.092C400.364 176.092 399.76 176.284 399.263 176.668C398.766 177.046 398.387 177.572 398.127 178.244C397.871 178.912 397.743 179.681 397.743 180.553ZM412.896 186.227C411.878 186.227 410.997 185.991 410.254 185.517C409.511 185.039 408.935 184.378 408.528 183.536C408.126 182.688 407.924 181.713 407.924 180.609C407.924 179.511 408.126 178.536 408.528 177.683C408.935 176.826 409.496 176.156 410.211 175.673C410.931 175.186 411.762 174.942 412.704 174.942C413.296 174.942 413.867 175.051 414.416 175.268C414.965 175.482 415.458 175.811 415.893 176.256C416.333 176.696 416.681 177.252 416.937 177.925C417.193 178.592 417.321 179.383 417.321 180.297V180.922H408.798V179.807H416.028C416.028 179.106 415.886 178.476 415.602 177.918C415.323 177.354 414.932 176.909 414.43 176.582C413.933 176.256 413.358 176.092 412.704 176.092C412.013 176.092 411.404 176.277 410.879 176.646C410.353 177.016 409.941 177.503 409.643 178.109C409.35 178.715 409.2 179.378 409.196 180.098V180.766C409.196 181.632 409.345 182.39 409.643 183.038C409.946 183.682 410.375 184.182 410.929 184.537C411.483 184.892 412.138 185.07 412.896 185.07C413.412 185.07 413.864 184.989 414.252 184.828C414.645 184.667 414.975 184.452 415.24 184.182C415.51 183.907 415.713 183.607 415.85 183.28L417.051 183.67C416.885 184.13 416.613 184.554 416.234 184.942C415.86 185.33 415.391 185.643 414.828 185.879C414.269 186.111 413.625 186.227 412.896 186.227ZM420.107 186V175.091H421.335V176.767H421.428C421.645 176.218 422.024 175.775 422.564 175.439C423.108 175.098 423.724 174.928 424.411 174.928C424.515 174.928 424.631 174.93 424.759 174.935C424.886 174.939 424.993 174.944 425.078 174.949V176.234C425.021 176.225 424.922 176.211 424.78 176.192C424.638 176.173 424.484 176.163 424.318 176.163C423.75 176.163 423.243 176.284 422.798 176.526C422.358 176.762 422.01 177.091 421.754 177.513C421.499 177.934 421.371 178.415 421.371 178.955V186H420.107ZM430.282 186.249C429.624 186.249 429.023 186.121 428.478 185.865C427.934 185.605 427.501 185.231 427.179 184.743C426.857 184.25 426.696 183.654 426.696 182.953C426.696 182.413 426.797 181.959 427.001 181.589C427.205 181.22 427.493 180.917 427.868 180.68C428.242 180.444 428.684 180.257 429.196 180.119C429.707 179.982 430.27 179.875 430.886 179.8C431.497 179.724 432.013 179.658 432.434 179.601C432.86 179.544 433.185 179.454 433.407 179.331C433.63 179.208 433.741 179.009 433.741 178.734V178.479C433.741 177.735 433.519 177.151 433.074 176.724C432.633 176.294 431.999 176.078 431.17 176.078C430.384 176.078 429.743 176.251 429.245 176.597C428.753 176.942 428.407 177.349 428.208 177.818L427.008 177.385C427.254 176.788 427.595 176.312 428.031 175.957C428.467 175.598 428.954 175.339 429.494 175.183C430.034 175.022 430.581 174.942 431.135 174.942C431.551 174.942 431.984 174.996 432.434 175.105C432.889 175.214 433.31 175.403 433.699 175.673C434.087 175.938 434.402 176.31 434.643 176.788C434.885 177.262 435.005 177.863 435.005 178.592V186H433.741V184.274H433.663C433.511 184.596 433.287 184.909 432.988 185.212C432.69 185.515 432.316 185.763 431.866 185.957C431.416 186.152 430.888 186.249 430.282 186.249ZM430.453 185.091C431.125 185.091 431.708 184.942 432.2 184.643C432.692 184.345 433.071 183.95 433.336 183.457C433.606 182.96 433.741 182.413 433.741 181.817V180.24C433.646 180.33 433.488 180.411 433.265 180.482C433.047 180.553 432.794 180.616 432.505 180.673C432.221 180.725 431.937 180.77 431.653 180.808C431.369 180.846 431.113 180.879 430.886 180.908C430.27 180.983 429.745 181.102 429.309 181.263C428.874 181.424 428.54 181.646 428.308 181.93C428.076 182.21 427.96 182.57 427.96 183.01C427.96 183.673 428.197 184.187 428.67 184.551C429.144 184.911 429.738 185.091 430.453 185.091ZM442.665 175.091V176.192H437.459V175.091H442.665ZM439.086 172.477H440.357V183.152C440.357 183.607 440.435 183.964 440.591 184.224C440.748 184.48 440.951 184.662 441.202 184.771C441.453 184.875 441.721 184.928 442.005 184.928C442.17 184.928 442.312 184.918 442.431 184.899C442.549 184.875 442.653 184.852 442.743 184.828L443.013 185.972C442.89 186.019 442.739 186.062 442.559 186.099C442.379 186.142 442.156 186.163 441.891 186.163C441.427 186.163 440.98 186.062 440.549 185.858C440.123 185.654 439.772 185.351 439.498 184.949C439.223 184.546 439.086 184.047 439.086 183.45V172.477ZM445.55 186V175.091H446.822V186H445.55ZM446.197 173.216C445.936 173.216 445.714 173.128 445.529 172.953C445.344 172.773 445.252 172.558 445.252 172.307C445.252 172.056 445.344 171.843 445.529 171.668C445.714 171.488 445.936 171.398 446.197 171.398C446.457 171.398 446.68 171.488 446.864 171.668C447.049 171.843 447.141 172.056 447.141 172.307C447.141 172.558 447.049 172.773 446.864 172.953C446.68 173.128 446.457 173.216 446.197 173.216ZM454.405 186.227C453.463 186.227 452.63 185.988 451.905 185.51C451.185 185.032 450.622 184.371 450.215 183.528C449.808 182.681 449.604 181.703 449.604 180.595C449.604 179.478 449.808 178.495 450.215 177.648C450.622 176.795 451.185 176.133 451.905 175.659C452.63 175.181 453.463 174.942 454.405 174.942C455.347 174.942 456.178 175.181 456.898 175.659C457.618 176.137 458.181 176.8 458.588 177.648C459 178.495 459.206 179.478 459.206 180.595C459.206 181.703 459.003 182.681 458.596 183.528C458.188 184.371 457.623 185.032 456.898 185.51C456.178 185.988 455.347 186.227 454.405 186.227ZM454.405 185.07C455.163 185.07 455.804 184.866 456.33 184.459C456.855 184.052 457.253 183.509 457.523 182.832C457.798 182.155 457.935 181.41 457.935 180.595C457.935 179.781 457.798 179.033 457.523 178.351C457.253 177.669 456.855 177.122 456.33 176.71C455.804 176.298 455.163 176.092 454.405 176.092C453.652 176.092 453.011 176.298 452.48 176.71C451.955 177.122 451.555 177.669 451.28 178.351C451.01 179.033 450.875 179.781 450.875 180.595C450.875 181.41 451.01 182.155 451.28 182.832C451.555 183.509 451.955 184.052 452.48 184.459C453.006 184.866 453.648 185.07 454.405 185.07ZM463.246 179.182V186H461.982V175.091H463.21V176.803H463.324C463.58 176.244 463.977 175.796 464.517 175.46C465.062 175.119 465.734 174.949 466.534 174.949C467.268 174.949 467.912 175.103 468.466 175.411C469.025 175.714 469.458 176.161 469.766 176.753C470.078 177.345 470.234 178.071 470.234 178.933V186H468.97V179.011C468.97 178.116 468.719 177.409 468.217 176.888C467.72 176.367 467.053 176.107 466.214 176.107C465.642 176.107 465.133 176.23 464.688 176.476C464.242 176.722 463.89 177.077 463.629 177.541C463.374 178 463.246 178.547 463.246 179.182ZM480.893 177.484L479.735 177.811C479.622 177.484 479.461 177.188 479.252 176.923C479.044 176.658 478.772 176.447 478.436 176.291C478.104 176.135 477.692 176.057 477.2 176.057C476.461 176.057 475.855 176.232 475.382 176.582C474.908 176.933 474.672 177.385 474.672 177.939C474.672 178.408 474.833 178.789 475.154 179.082C475.481 179.371 475.983 179.601 476.66 179.771L478.308 180.176C479.222 180.399 479.906 180.751 480.36 181.234C480.82 181.717 481.049 182.323 481.049 183.053C481.049 183.668 480.879 184.215 480.538 184.693C480.197 185.171 479.721 185.548 479.11 185.822C478.504 186.092 477.801 186.227 477.001 186.227C475.936 186.227 475.057 185.988 474.366 185.51C473.675 185.027 473.232 184.331 473.038 183.422L474.252 183.124C474.409 183.772 474.714 184.262 475.169 184.594C475.628 184.925 476.232 185.091 476.98 185.091C477.818 185.091 478.488 184.904 478.99 184.53C479.492 184.151 479.743 183.678 479.743 183.109C479.743 182.669 479.596 182.3 479.302 182.001C479.009 181.698 478.564 181.476 477.967 181.334L476.184 180.908C475.237 180.68 474.537 180.321 474.082 179.828C473.627 179.336 473.4 178.725 473.4 177.996C473.4 177.394 473.564 176.866 473.89 176.412C474.217 175.953 474.667 175.593 475.24 175.332C475.813 175.072 476.466 174.942 477.2 174.942C478.199 174.942 478.997 175.169 479.593 175.624C480.195 176.073 480.628 176.694 480.893 177.484ZM499.769 176C499.637 175.517 499.442 175.065 499.187 174.643C498.931 174.217 498.614 173.846 498.235 173.528C497.861 173.206 497.428 172.955 496.935 172.776C496.448 172.596 495.903 172.506 495.302 172.506C494.355 172.506 493.507 172.752 492.759 173.244C492.011 173.737 491.419 174.447 490.984 175.375C490.553 176.303 490.337 177.42 490.337 178.727C490.337 180.029 490.555 181.144 490.991 182.072C491.426 183 492.023 183.713 492.781 184.21C493.543 184.703 494.414 184.949 495.394 184.949C496.289 184.949 497.08 184.75 497.766 184.352C498.453 183.955 498.988 183.386 499.371 182.648C499.76 181.909 499.949 181.031 499.94 180.013L500.366 180.148H495.707V178.955H501.232V180.148C501.232 181.388 500.981 182.461 500.479 183.365C499.978 184.269 499.289 184.968 498.413 185.46C497.537 185.953 496.531 186.199 495.394 186.199C494.125 186.199 493.015 185.893 492.063 185.283C491.112 184.667 490.371 183.801 489.84 182.683C489.315 181.561 489.052 180.242 489.052 178.727C489.052 177.586 489.203 176.556 489.506 175.638C489.809 174.719 490.238 173.933 490.792 173.28C491.351 172.626 492.011 172.127 492.773 171.781C493.536 171.431 494.379 171.256 495.302 171.256C496.097 171.256 496.824 171.381 497.482 171.632C498.145 171.883 498.728 172.229 499.229 172.669C499.736 173.105 500.15 173.609 500.472 174.182C500.799 174.75 501.019 175.356 501.133 176H499.769ZM504.267 186V175.091H505.495V176.767H505.588C505.806 176.218 506.184 175.775 506.724 175.439C507.269 175.098 507.884 174.928 508.571 174.928C508.675 174.928 508.791 174.93 508.919 174.935C509.047 174.939 509.153 174.944 509.238 174.949V176.234C509.181 176.225 509.082 176.211 508.94 176.192C508.798 176.173 508.644 176.163 508.478 176.163C507.91 176.163 507.404 176.284 506.958 176.526C506.518 176.762 506.17 177.091 505.914 177.513C505.659 177.934 505.531 178.415 505.531 178.955V186H504.267ZM515.304 186.227C514.361 186.227 513.528 185.988 512.804 185.51C512.084 185.032 511.52 184.371 511.113 183.528C510.706 182.681 510.502 181.703 510.502 180.595C510.502 179.478 510.706 178.495 511.113 177.648C511.52 176.795 512.084 176.133 512.804 175.659C513.528 175.181 514.361 174.942 515.304 174.942C516.246 174.942 517.077 175.181 517.797 175.659C518.516 176.137 519.08 176.8 519.487 177.648C519.899 178.495 520.105 179.478 520.105 180.595C520.105 181.703 519.901 182.681 519.494 183.528C519.087 184.371 518.521 185.032 517.797 185.51C517.077 185.988 516.246 186.227 515.304 186.227ZM515.304 185.07C516.061 185.07 516.703 184.866 517.228 184.459C517.754 184.052 518.152 183.509 518.422 182.832C518.696 182.155 518.833 181.41 518.833 180.595C518.833 179.781 518.696 179.033 518.422 178.351C518.152 177.669 517.754 177.122 517.228 176.71C516.703 176.298 516.061 176.092 515.304 176.092C514.551 176.092 513.909 176.298 513.379 176.71C512.853 177.122 512.453 177.669 512.179 178.351C511.909 179.033 511.774 179.781 511.774 180.595C511.774 181.41 511.909 182.155 512.179 182.832C512.453 183.509 512.853 184.052 513.379 184.459C513.904 184.866 514.546 185.07 515.304 185.07ZM529.812 181.831V175.091H531.076V186H529.812V184.189H529.712C529.457 184.748 529.052 185.214 528.498 185.588C527.944 185.957 527.267 186.142 526.467 186.142C525.771 186.142 525.153 185.991 524.613 185.688C524.073 185.38 523.649 184.93 523.342 184.338C523.034 183.746 522.88 183.019 522.88 182.158V175.091H524.144V182.08C524.144 182.932 524.395 183.618 524.897 184.139C525.399 184.655 526.043 184.913 526.829 184.913C527.321 184.913 527.795 184.795 528.249 184.558C528.704 184.321 529.078 183.976 529.371 183.521C529.665 183.062 529.812 182.499 529.812 181.831ZM534.423 190.091V175.091H535.652V177.172H535.801C535.952 176.845 536.161 176.511 536.426 176.17C536.691 175.825 537.041 175.534 537.477 175.297C537.917 175.06 538.471 174.942 539.139 174.942C540.038 174.942 540.824 175.179 541.497 175.652C542.174 176.121 542.699 176.779 543.074 177.626C543.452 178.469 543.642 179.452 543.642 180.574C543.642 181.701 543.452 182.688 543.074 183.536C542.699 184.383 542.174 185.044 541.497 185.517C540.824 185.991 540.043 186.227 539.153 186.227C538.495 186.227 537.943 186.109 537.498 185.872C537.058 185.635 536.7 185.344 536.426 184.999C536.156 184.648 535.948 184.307 535.801 183.976H535.687V190.091H534.423ZM535.673 180.553C535.673 181.433 535.803 182.214 536.064 182.896C536.329 183.573 536.708 184.106 537.2 184.494C537.697 184.878 538.298 185.07 539.004 185.07C539.728 185.07 540.339 184.871 540.836 184.473C541.338 184.071 541.719 183.528 541.98 182.847C542.245 182.165 542.377 181.4 542.377 180.553C542.377 179.714 542.247 178.959 541.987 178.287C541.731 177.615 541.352 177.082 540.85 176.689C540.349 176.291 539.733 176.092 539.004 176.092C538.294 176.092 537.69 176.284 537.193 176.668C536.696 177.046 536.317 177.572 536.056 178.244C535.801 178.912 535.673 179.681 535.673 180.553Z" fill="black"/>
</svg>
